<?xml version="1.0" encoding="utf-8"?>
<!-- Generator: Adobe Adobe Illustrator 24.2.0, SVG Export Plug-In . SVG Version: 6.00 Build 0)  -->
<svg version="1.1" xmlns="http://www.w3.org/2000/svg" xmlns:xlink="http://www.w3.org/1999/xlink" x="0px" y="0px" width="800px"
	 height="800px" viewBox="0 0 800 800" style="enable-background:new 0 0 800 800;" xml:space="preserve">
<style type="text/css">
	.st0{fill:#FFFFFF;}
	.st1{fill:none;stroke:#000000;stroke-miterlimit:10;}
	.st2{fill:#090904;}
	.st3{fill:#F1E933;}
	.st4{fill:#34AECB;}
	.st5{fill:#3EB2CD;}
	.st6{fill:#C0E0E5;}
	.st7{fill:#3AB1CC;}
	.st8{fill:#3CB0C8;}
	.st9{fill:#45B5CE;}
	.st10{fill:#36A1C8;}
	.st11{fill:#368BBB;}
	.st12{fill:none;stroke:#000000;stroke-width:3;stroke-miterlimit:10;}
</style>
<g id="Layer_3">
	<rect class="st0" width="800" height="800"/>
</g>
<g id="Layer_2">
	<g>
		<g>
			<path class="st2" d="M198.25,611.54c-24.42-24.83-48.68-49.33-72.74-74.02c-13.38-13.73-10.07-36.17,6.48-45.85
				c1.26-0.74,2.57-1.4,4.45-2.41c-7.38-7.56-14.15-15.47-21.9-22.26c-17.98-15.78-11.85-44.26,9.73-51.02
				c0.26-0.08,0.42-0.45,0.63-0.69c-4.39-18.01-0.89-29.65,11.3-37.53c11.54-7.46,24.28-6.12,37.24,4.07
				c4.61-9.41,11.67-15.84,22.22-17.75c10.66-1.93,19.55,1.41,27.1,9.01c35.16,35.33,70.35,70.62,105.54,105.92
				c0.33,0.33,0.77,0.57,1.5,1.1c4.92-13.61,9.78-27.06,14.64-40.5c0.94-2.6,1.85-5.22,2.85-7.8c2.88-7.42,8.7-10.41,16.37-8.45
				c11.27,2.88,22.27,15.5,23.12,27.21c2.15,29.81,4.62,59.62,5.94,89.48c2.28,51.68-32.47,102.21-80.14,116.72
				c-34.3,10.45-64.77,3.04-90.72-21.92C213.98,627.27,206.28,619.48,198.25,611.54z M372.11,570.69c1.3-10,3.47-19.97,3.68-29.99
				c0.26-12.21-1.01-24.47-1.84-36.69c-1.17-17.11-2.43-34.21-3.92-51.3c-0.44-5.1-3.45-8.85-8.23-11.63
				c-6.62,18.45-13.02,36.37-19.47,54.28c-3.73,10.35-9.63,11.77-17.33,4.07c-38.23-38.27-76.42-76.57-114.61-114.88
				c-5.26-5.27-13.39-5.5-18.43-0.44c-4.93,4.94-4.76,12.51,0.45,17.89c10.45,10.81,20.93,21.58,31.38,32.39
				c12.72,13.16,25.53,26.24,38.02,39.61c2,2.14,3.72,5.76,3.43,8.47c-0.26,2.42-3.06,5.3-5.48,6.59c-3.84,2.05-7.09-0.4-9.86-3.28
				c-29.38-30.46-58.79-60.89-88.18-91.34c-5.54-5.74-13.4-6.1-18.7-0.76c-5.03,5.07-4.74,12.93,0.62,18.37
				c25.7,26.07,51.38,52.15,77.06,78.24c1.95,1.98,4.01,3.89,5.62,6.13c2.48,3.43,1.92,7.92-1.16,10.67
				c-3.17,2.83-6.74,3.18-10.35,0.91c-1.36-0.85-2.48-2.11-3.62-3.27c-22.76-22.99-45.5-45.99-68.25-68.99
				c-5.37-5.43-13.23-5.78-18.39-0.81c-5.28,5.1-4.94,13.09,0.6,18.71c21.78,22.11,43.53,44.25,65.25,66.41
				c7.55,7.7,15.25,15.29,22.29,23.43c1.85,2.15,2.65,6.54,1.82,9.25c-0.68,2.23-4.41,4.71-6.94,4.88
				c-2.58,0.17-5.92-1.75-7.93-3.76c-15.14-15.13-30.07-30.47-44.97-45.85c-3.37-3.47-7.13-4.32-11.56-2.92
				c-9.36,2.96-12,14.15-4.98,21.24c31.49,31.83,62.9,63.73,94.54,95.41c24.08,24.11,55.63,29.41,86.33,14.45
				C346.52,622.81,363.08,600.22,372.11,570.69z"/>
			<path class="st3" d="M372.04,571.09c-8.96,29.13-25.52,51.72-53,65.12c-30.69,14.96-62.25,9.66-86.33-14.45
				c-31.64-31.68-63.05-63.58-94.54-95.41c-7.02-7.09-4.38-18.28,4.98-21.24c4.42-1.4,8.19-0.55,11.56,2.92
				c14.9,15.37,29.83,30.71,44.97,45.85c2.01,2.01,5.35,3.93,7.93,3.76c2.53-0.17,6.26-2.65,6.94-4.88
				c0.83-2.72,0.03-7.11-1.82-9.25c-7.04-8.15-14.74-15.73-22.29-23.43c-21.72-22.17-43.47-44.3-65.25-66.41
				c-5.54-5.63-5.88-13.62-0.6-18.71c5.15-4.97,13.02-4.62,18.39,0.81c22.75,23,45.49,46,68.25,68.99c1.15,1.16,2.27,2.42,3.62,3.27
				c3.61,2.27,7.18,1.92,10.35-0.91c3.08-2.75,3.64-7.23,1.16-10.67c-1.61-2.23-3.68-4.15-5.62-6.13
				c-25.68-26.09-51.37-52.17-77.06-78.24c-5.36-5.44-5.65-13.3-0.62-18.37c5.29-5.34,13.16-4.98,18.7,0.76
				c29.39,30.45,58.8,60.88,88.18,91.34c2.77,2.88,6.02,5.33,9.86,3.28c2.42-1.29,5.22-4.17,5.48-6.59
				c0.29-2.71-1.43-6.33-3.43-8.47c-12.49-13.37-25.3-26.45-38.02-39.61c-10.45-10.81-20.93-21.58-31.38-32.39
				c-5.21-5.38-5.38-12.95-0.45-17.89c5.04-5.06,13.17-4.83,18.43,0.44c38.19,38.3,76.38,76.61,114.61,114.88
				c7.69,7.7,13.6,6.28,17.33-4.07c6.45-17.91,12.86-35.83,19.47-54.28c4.78,2.78,7.78,6.53,8.23,11.63
				c1.48,17.08,2.75,34.19,3.92,51.3c0.84,12.22,2.1,24.48,1.84,36.69C375.58,550.72,373.41,560.7,372.04,571.09z"/>
		</g>
		<g>
			<path class="st2" d="M676.87,534.66c-21.41,22.06-42.54,43.9-63.85,65.58c-11,11.19-22.52,21.87-33.4,33.17
				c-30.67,31.84-76.44,36.89-114.34,13.43c-39.44-24.41-58.6-61.13-57.91-107.14c0.44-29.69,3.61-59.34,5.76-89
				c0.85-11.81,11.66-24.31,23-27.3c7.68-2.02,13.67,0.86,16.42,8.31c5.59,15.12,11,30.3,16.5,45.46c0.33,0.9,0.74,1.77,1.69,4
				c4.31-4.71,8.01-9.03,12-13.06c31.65-31.91,63.41-63.72,95.03-95.66c14.01-14.15,38.86-11.62,48.64,9.37
				c12.24-10.19,25.3-12.27,38.84-2.96c11.15,7.67,14.05,19.36,9.68,36.7c6.8,2.49,12.62,6.43,16.58,12.76
				c7.35,11.74,5.63,27.01-4.43,36.85c-7.94,7.77-16.08,15.33-24.82,23.63c10.81,4.8,17.25,11.68,19.61,21.84
				C683.86,519.23,682.06,527.15,676.87,534.66z M660.27,405.29c0.36-7.47-2.11-12.16-7.59-14.41c-5.08-2.09-10.19-0.89-14.28,3.35
				c-26.78,27.75-53.55,55.5-80.33,83.24c-3.18,3.29-6.05,7.02-9.7,9.66c-2.18,1.58-6.01,2.57-8.37,1.74
				c-2.38-0.83-5.18-4.12-5.39-6.54c-0.23-2.72,1.58-6.28,3.61-8.42c23.01-24.12,46.24-48.03,69.39-72.01
				c5.15-5.33,5.2-13.02,0.21-17.89c-5.11-4.99-13.12-4.63-18.41,0.68c-38.3,38.42-76.61,76.83-114.96,115.21
				c-7.02,7.03-13.13,5.59-16.53-3.78c-6.11-16.84-12.14-33.71-18.22-50.56c-0.52-1.43-1.16-2.81-1.89-4.57
				c-4.91,3.67-7.83,7.63-8.1,13.38c-0.26,5.54-0.98,11.06-1.34,16.6c-1.52,23.63-4.01,47.26-4.22,70.91
				c-0.31,35.13,13.9,64.14,42,85.42c31.83,24.11,73.85,23.34,102.51-6.63c30.49-31.88,61.95-62.83,92.98-94.18
				c5.33-5.39,5.43-13.33,0.25-18.34c-5.33-5.16-11.99-4.83-17.58,0.88c-14.97,15.3-29.9,30.65-44.95,45.87
				c-4.03,4.08-9.11,4.1-12.61,0.52c-3.33-3.41-3.3-8.28,0.51-12.27c15.11-15.84,30.22-31.69,45.53-47.34
				c14.16-14.48,28.63-28.66,42.84-43.08c4.9-4.98,4.64-12.85-0.21-17.64c-4.83-4.78-12.67-4.85-17.68-0.11
				c-3.08,2.91-6.15,5.85-9.12,8.87c-19.95,20.26-39.87,40.55-59.82,60.81c-1.25,1.27-2.51,3.17-4.02,3.44
				c-2.84,0.52-6.4,1.03-8.64-0.24c-2.05-1.16-3.81-4.73-3.74-7.18c0.08-2.52,2.07-5.42,4-7.39c26.5-27.11,53.16-54.07,79.7-81.14
				C657.75,410.42,658.77,408.1,660.27,405.29z"/>
			<path class="st3" d="M660.17,405.68c-1.41,2.42-2.42,4.74-4.08,6.43c-26.54,27.07-53.2,54.03-79.7,81.14
				c-1.93,1.97-3.92,4.87-4,7.39c-0.07,2.45,1.69,6.01,3.74,7.18c2.24,1.28,5.8,0.77,8.64,0.24c1.5-0.28,2.76-2.17,4.02-3.44
				c19.95-20.26,39.87-40.55,59.82-60.81c2.97-3.02,6.04-5.95,9.12-8.87c5.01-4.74,12.85-4.67,17.68,0.11
				c4.85,4.8,5.11,12.67,0.21,17.64c-14.22,14.42-28.68,28.6-42.84,43.08c-15.31,15.65-30.42,31.5-45.53,47.34
				c-3.8,3.99-3.84,8.86-0.51,12.27c3.5,3.58,8.57,3.56,12.61-0.52c15.05-15.22,29.97-30.57,44.95-45.87
				c5.59-5.71,12.25-6.04,17.58-0.88c5.17,5.01,5.08,12.95-0.25,18.34c-31.03,31.36-62.5,62.31-92.98,94.18
				c-28.66,29.97-70.69,30.74-102.51,6.63c-28.1-21.29-42.32-50.3-42-85.42c0.21-23.65,2.7-47.27,4.22-70.91
				c0.36-5.54,1.08-11.06,1.34-16.6c0.27-5.75,3.19-9.71,8.1-13.38c0.73,1.76,1.38,3.14,1.89,4.57
				c6.08,16.85,12.11,33.72,18.22,50.56c3.4,9.37,9.5,10.81,16.53,3.78c38.35-38.37,76.66-76.79,114.96-115.21
				c5.29-5.31,13.3-5.67,18.41-0.68c5,4.88,4.94,12.56-0.21,17.89c-23.15,23.98-46.38,47.89-69.39,72.01
				c-2.04,2.13-3.85,5.7-3.61,8.42c0.21,2.42,3.01,5.71,5.39,6.54c2.36,0.83,6.19-0.16,8.37-1.74c3.65-2.64,6.52-6.37,9.7-9.66
				c26.78-27.75,53.55-55.5,80.33-83.24c4.09-4.24,9.2-5.43,14.28-3.35C658.16,393.13,660.63,397.82,660.17,405.68z"/>
		</g>
	</g>
	<g>
		<g>
			<polygon class="st4" points="366.86,181.84 315.71,181.36 354.44,136.36 			"/>
			<polygon class="st5" points="400.86,136.09 366.86,182.42 354.53,136.3 			"/>
			<polygon class="st6" points="367.45,181.37 434.8,181.35 400.86,136.09 			"/>
			<polygon class="st7" points="486,182.42 434.98,181.49 446.64,135.69 			"/>
			<polygon class="st8" points="400.86,136.09 446.64,135.69 434.96,181.51 			"/>
			<polygon class="st9" points="400.69,305.89 366.17,181.37 434.8,181.35 			"/>
			<polygon class="st10" points="315.71,181.5 366.67,181.63 400.69,305.89 			"/>
			<polygon class="st11" points="400.69,305.89 486,182.42 434.8,181.35 			"/>
			<polygon class="st4" points="366.86,181.84 315.71,181.36 354.44,136.36 			"/>
			<polygon class="st5" points="400.86,136.09 366.86,182.42 354.53,136.3 			"/>
			<polygon class="st6" points="367.45,181.37 434.8,181.35 400.86,136.09 			"/>
			<polygon class="st7" points="486,182.42 434.98,181.49 446.64,135.69 			"/>
			<polygon class="st8" points="400.86,136.09 446.64,135.69 434.96,181.51 			"/>
			<polygon class="st9" points="400.69,305.89 366.17,181.37 434.8,181.35 			"/>
			<polygon class="st10" points="315.71,181.5 366.67,181.63 400.69,305.89 			"/>
			<polygon class="st11" points="400.69,305.89 486,182.42 434.8,181.35 			"/>
		</g>
		<path class="st12" d="M446.64,135.69l-45.78,0.4l-46.32,0.21l-0.1,0.06l-38.72,45v0.14l84.97,124.39L486,182.42L446.64,135.69z"/>
	</g>
</g>
</svg>
